<svg width="40" height="40" viewBox="0 0 40 40" fill="none" xmlns="http://www.w3.org/2000/svg">
<path d="M7.00293 6.55029C6.82612 6.55029 6.65656 6.62055 6.53154 6.74557C6.40651 6.8706 6.33626 7.04015 6.33626 7.21696V10.8506C4.82014 13.6405 4.15484 16.8747 4.45369 20.0365C4.7433 23.1003 5.94362 26.093 7.98237 28.4263C11.0054 31.8862 15.6812 33.631 20.2311 33.4349C23.3109 33.3022 26.342 32.3246 28.9188 30.6326C28.9282 30.6255 28.9375 30.6181 28.9465 30.6105C28.9612 30.5995 28.9754 30.5879 28.9891 30.5758C29.0109 30.5567 29.0314 30.5362 29.0506 30.5144C29.063 30.5007 29.0748 30.4866 29.086 30.4719C29.1035 30.4478 29.1195 30.4224 29.1337 30.3961C29.1424 30.3814 29.1506 30.3664 29.1581 30.3511C29.171 30.3214 29.1817 30.2909 29.1902 30.2597C29.1951 30.2454 29.1997 30.231 29.2037 30.2164C29.2136 30.1713 29.2187 30.1252 29.219 30.0789C29.219 30.0777 29.219 30.0765 29.219 30.0753V26.1018C29.219 26.0834 29.2183 26.065 29.2168 26.0466C29.207 25.931 29.1671 25.82 29.1012 25.7245C29.1002 25.7231 29.0993 25.7217 29.0983 25.7204C29.0878 25.7054 29.0767 25.6909 29.065 25.6769C30.14 25.1587 31.1773 24.5625 32.1655 23.893C33.3201 23.1108 34.4077 22.2298 35.4124 21.2626C35.4296 21.2457 35.446 21.228 35.4613 21.2094C35.4653 21.2047 35.4692 21.1999 35.473 21.1951C35.4876 21.1767 35.5013 21.1576 35.5139 21.1378C35.5139 21.1373 35.5139 21.1368 35.5139 21.1364C35.5272 21.1152 35.5393 21.0933 35.5501 21.0707C35.5518 21.067 35.5535 21.0633 35.5551 21.0595C35.5644 21.0393 35.5727 21.0186 35.5799 20.9975C35.5808 20.9949 35.5817 20.9923 35.5827 20.9897C35.5903 20.9665 35.5966 20.9428 35.6017 20.9189C35.6026 20.9144 35.6034 20.9099 35.6042 20.9054C35.608 20.8851 35.6109 20.8647 35.6128 20.8441C35.6133 20.839 35.6138 20.8339 35.6142 20.8288C35.616 20.8055 35.6165 20.7821 35.6158 20.7587C35.6154 20.7537 35.6149 20.7487 35.6144 20.7436C35.6132 20.7228 35.6109 20.702 35.6078 20.6814C35.6072 20.6773 35.6066 20.6732 35.606 20.6691C35.6018 20.6443 35.5963 20.6197 35.5893 20.5955C35.5887 20.5937 35.5881 20.5919 35.5874 20.5902C35.5812 20.5694 35.5738 20.549 35.5656 20.529C35.5633 20.5235 35.561 20.518 35.5586 20.5126C35.5388 20.4677 35.514 20.4252 35.4849 20.3858C35.4823 20.3823 35.4797 20.3788 35.4771 20.3754C35.4728 20.3696 35.4684 20.3639 35.464 20.3582L32.9723 17.328C32.9342 17.2832 32.8904 17.2436 32.8419 17.2103C32.8359 17.2061 32.8298 17.202 32.8236 17.1981C32.7336 17.1372 32.6301 17.0993 32.5221 17.0877C32.5187 17.0876 32.5153 17.0876 32.512 17.0877C32.5097 17.0876 32.5074 17.0876 32.5051 17.0877C32.3936 17.0801 32.2819 17.1008 32.1804 17.1478C32.1771 17.1484 32.1737 17.149 32.1704 17.1496C29.0817 18.6231 25.5054 19.0838 22.1442 18.4411C18.0594 17.6599 14.2981 15.2177 11.9108 11.8124V7.21682C11.9109 7.19848 11.9102 7.18017 11.9087 7.16189C11.9087 7.16085 11.9087 7.15977 11.9087 7.15873C11.9079 7.15151 11.9069 7.14432 11.9058 7.13713C11.9046 7.12625 11.9031 7.11541 11.9014 7.1046C11.8999 7.09649 11.8983 7.0884 11.8965 7.08036C11.8944 7.0698 11.892 7.05928 11.8895 7.04883C11.8873 7.04107 11.8851 7.03336 11.8826 7.02567C11.8796 7.01509 11.8763 7.0046 11.8727 6.99418C11.87 6.9871 11.8672 6.98005 11.8643 6.97307C11.86 6.96201 11.8554 6.95107 11.8505 6.94026C11.8478 6.9344 11.845 6.9286 11.8421 6.92283C11.8367 6.91191 11.8312 6.90114 11.8252 6.89054C11.8211 6.88342 11.8168 6.87638 11.8124 6.86942C11.8071 6.86062 11.8017 6.85194 11.796 6.84338C11.7907 6.83563 11.7852 6.82799 11.7796 6.82047C11.7743 6.81315 11.7688 6.80596 11.7632 6.79887C11.7575 6.7919 11.7517 6.78502 11.7457 6.77828C11.7382 6.76966 11.7305 6.76126 11.7226 6.75304C11.7174 6.74765 11.7121 6.74234 11.7067 6.73713C11.6995 6.73019 11.6921 6.72343 11.6845 6.71682C11.6775 6.7106 11.6703 6.70451 11.6629 6.69859C11.6556 6.6927 11.6481 6.68698 11.6405 6.6814C11.6326 6.67541 11.6245 6.66957 11.6163 6.66394C11.609 6.6591 11.6015 6.65442 11.5939 6.64988C11.5858 6.64484 11.5777 6.63998 11.5695 6.63529C11.5605 6.63039 11.5515 6.62568 11.5424 6.6212C11.5346 6.6172 11.5268 6.61335 11.5189 6.60967C11.511 6.60619 11.503 6.6029 11.4949 6.59974C11.4845 6.5953 11.474 6.59111 11.4634 6.5872C11.4567 6.58501 11.4499 6.58293 11.4431 6.58095C11.4331 6.57768 11.4231 6.57465 11.4129 6.57186C11.4008 6.56881 11.3885 6.56609 11.3762 6.56373C11.37 6.56236 11.3637 6.5611 11.3574 6.55991C11.3392 6.55673 11.3207 6.5543 11.3022 6.55265C11.3013 6.55265 11.3003 6.55265 11.2994 6.55265C11.281 6.55113 11.2626 6.55036 11.2442 6.55036L7.00293 6.55029ZM7.66959 7.88363H10.579V12.0271C10.579 12.0276 10.579 12.0281 10.579 12.0286C10.4905 13.9856 10.857 15.9569 11.6451 17.7504C13.3198 21.5614 16.7942 24.3345 20.6501 25.7195C22.9618 26.5498 25.4329 26.9204 27.886 26.8111V29.7082C25.5788 31.1484 22.8901 31.9862 20.1733 32.1033C16.0051 32.2829 11.7048 30.6605 8.98626 27.5491C7.14946 25.447 6.04546 22.7115 5.78077 19.9114C5.50226 16.9647 6.14201 13.9263 7.58494 11.3421C7.5882 11.3349 7.59132 11.3277 7.59432 11.3205C7.60168 11.3052 7.60848 11.2897 7.61466 11.2739C7.62634 11.2465 7.63619 11.2184 7.64411 11.1897C7.64885 11.1717 7.65284 11.1534 7.65605 11.135C7.66112 11.1067 7.66433 11.0781 7.66571 11.0494C7.6672 11.0387 7.66842 11.0279 7.66939 11.0171L7.66959 7.88363ZM11.9941 14.0664C14.5559 16.9756 18.0798 19.0209 21.8954 19.7506C25.3706 20.4151 29.0314 19.9936 32.2683 18.5693L34.0383 20.7222C33.216 21.4727 32.34 22.1644 31.4183 22.7888C29.7669 23.9076 27.9689 24.8114 26.0863 25.4704C24.3874 25.3772 22.7012 25.0391 21.1011 24.4644C17.5401 23.1853 14.3618 20.6178 12.866 17.2138C12.427 16.2148 12.134 15.1502 11.9941 14.0664Z" fill="#1E1E1E"/>
</svg>
