<svg width="40" height="40" viewBox="0 0 40 40" fill="none" xmlns="http://www.w3.org/2000/svg">
<path d="M19.9997 4.65439C19.0647 4.65439 18.1449 4.95711 17.3927 5.51244C16.8473 5.91506 16.4037 6.44152 16.0955 7.04085C15.5817 6.84737 15.0312 6.75562 14.4794 6.77494C13.6697 6.8034 12.8797 7.07006 12.2185 7.53821C11.2689 8.21052 10.6455 9.26724 10.4955 10.4083C8.82525 10.5107 7.21205 11.2344 6.03408 12.4322C4.7017 13.787 3.98358 15.6883 4.08696 17.5856C4.19031 19.483 5.11086 21.2945 6.58251 22.4965C8.05419 23.6986 10.0131 24.2389 11.8929 23.9614C13.7685 23.6845 15.4691 22.5955 16.5338 21.0427C17.3302 21.8525 18.4025 22.3764 19.545 22.484C20.4394 22.5683 21.3475 22.4005 22.1526 22.0017C22.6425 21.7591 23.087 21.4339 23.4674 21.045C24.5322 22.5966 26.2321 23.6846 28.1067 23.9614C29.9865 24.2389 31.9455 23.6986 33.4172 22.4965C34.8888 21.2945 35.8096 19.483 35.913 17.5856C36.0164 15.6883 35.298 13.787 33.9656 12.4322C32.7876 11.2344 31.1744 10.5107 29.5041 10.4083C29.3542 9.26724 28.7308 8.21052 27.7812 7.53821C27.1199 7.07 26.3301 6.80335 25.5203 6.77494C24.9683 6.75557 24.4178 6.84756 23.9039 7.04112C23.5958 6.44173 23.1524 5.9151 22.607 5.51244C21.8548 4.95711 20.935 4.65439 20 4.65439H19.9997ZM19.9997 5.98772C20.6429 5.98772 21.2973 6.20332 21.8148 6.58536C22.3323 6.9674 22.7306 7.52927 22.92 8.14397C22.9241 8.15283 22.9284 8.16162 22.9328 8.17029C22.9468 8.21327 22.9651 8.2547 22.9875 8.29397C22.9925 8.3004 22.9976 8.30676 23.0029 8.313C23.016 8.33124 23.0301 8.34876 23.045 8.36557C23.0715 8.39869 23.1011 8.42918 23.1333 8.45668C23.1519 8.47187 23.1713 8.48608 23.1914 8.49918C23.2266 8.52227 23.2639 8.54195 23.3029 8.558C23.3239 8.56735 23.3453 8.57566 23.3672 8.58279C23.4119 8.59553 23.4578 8.60356 23.5042 8.60675C23.522 8.60946 23.5399 8.61146 23.5578 8.61272C23.6226 8.61296 23.6871 8.60372 23.7492 8.58536C23.7506 8.58537 23.752 8.58537 23.7533 8.58536C23.8036 8.56957 23.8517 8.54789 23.8968 8.52078C23.899 8.51984 23.9012 8.51889 23.9034 8.51793C24.3692 8.23495 24.9287 8.08889 25.4734 8.108C26.0181 8.1271 26.5658 8.31209 27.0106 8.62703C27.761 9.1583 28.2376 10.1228 28.2041 11.0416C28.2049 11.0523 28.206 11.063 28.2073 11.0736C28.2062 11.0794 28.2053 11.0853 28.2044 11.0911C28.2066 11.1014 28.209 11.1116 28.2117 11.1218C28.2174 11.188 28.2329 11.2529 28.2578 11.3145C28.2624 11.3282 28.2674 11.3418 28.2729 11.3552C28.3066 11.424 28.352 11.4866 28.407 11.5401C28.4192 11.551 28.4318 11.5615 28.4448 11.5715C28.4952 11.6139 28.5516 11.6486 28.6122 11.6745C28.6255 11.6812 28.6391 11.6874 28.6528 11.6932C28.715 11.7157 28.7803 11.7287 28.8463 11.732C28.8567 11.7313 28.867 11.7303 28.8773 11.7291C28.8834 11.7301 28.8894 11.7311 28.8955 11.732C30.4053 11.675 31.9555 12.2905 33.0148 13.3677C34.0741 14.4448 34.6637 16.0047 34.5815 17.5132C34.4993 19.0218 33.7437 20.5088 32.5737 21.4645C31.4036 22.4202 29.7956 22.8636 28.301 22.6429C26.5462 22.3839 24.9168 21.1809 24.1521 19.5804C24.1508 19.5788 24.1496 19.5771 24.1483 19.5754C24.1115 19.5 24.0607 19.4323 23.9986 19.3757C23.9963 19.3737 23.9939 19.3717 23.9915 19.3697C23.9638 19.3448 23.9342 19.3223 23.9027 19.3023C23.8755 19.2886 23.8474 19.2768 23.8186 19.2669C23.7943 19.2548 23.7694 19.2441 23.7439 19.2351C23.6801 19.2159 23.6138 19.2065 23.5472 19.207C23.5347 19.2055 23.5221 19.2043 23.5095 19.2036C23.4302 19.2092 23.3524 19.2289 23.28 19.2619C23.2743 19.2633 23.2686 19.2648 23.2629 19.2663C23.2486 19.2762 23.2347 19.2866 23.2212 19.2976C23.1718 19.3255 23.1261 19.3596 23.0853 19.3991C23.066 19.4188 23.0478 19.4397 23.0311 19.4616C23.0145 19.4787 22.9989 19.4967 22.9842 19.5155C22.6426 20.0639 22.1396 20.5207 21.5605 20.8074C20.9815 21.0942 20.3129 21.2178 19.6696 21.1572C18.6101 21.0574 17.5791 20.4203 17.0157 19.5174C17.0157 19.5174 17.0157 19.5159 17.0143 19.5155C17.0136 19.5146 17.0129 19.5138 17.0122 19.5129C16.9829 19.4669 16.9481 19.4247 16.9086 19.3872C16.906 19.3844 16.9033 19.3817 16.9007 19.379C16.8617 19.3434 16.8186 19.3126 16.7723 19.2872C16.7665 19.2837 16.7606 19.2803 16.7546 19.277C16.7484 19.2734 16.7422 19.2699 16.7359 19.2664C16.7258 19.2636 16.7156 19.2609 16.7054 19.2586C16.6712 19.2423 16.6356 19.2289 16.5991 19.2187C16.5722 19.2144 16.5451 19.2118 16.5179 19.2108C16.4992 19.2082 16.4805 19.2063 16.4616 19.2052C16.3859 19.2031 16.3103 19.2141 16.2382 19.2375C16.2252 19.2429 16.2123 19.2487 16.1997 19.2549C16.1637 19.2677 16.129 19.2836 16.0958 19.3023C16.0773 19.3166 16.0595 19.3319 16.0427 19.3481C16.0203 19.3652 15.9991 19.3836 15.9791 19.4033C15.9403 19.4435 15.9067 19.4884 15.8791 19.537C15.8677 19.551 15.8568 19.5655 15.8465 19.5804C15.0818 21.1809 13.4524 22.3839 11.6976 22.6429C10.203 22.8636 8.59528 22.4202 7.42519 21.4645C6.2551 20.5088 5.49955 19.0218 5.41737 17.5133C5.33518 16.0047 5.9247 14.4449 6.98404 13.3677C8.04337 12.2905 9.59334 11.675 11.1031 11.732C11.1092 11.7312 11.1154 11.7302 11.1215 11.7292C11.1318 11.7304 11.1422 11.7313 11.1525 11.732C11.2225 11.7293 11.2916 11.7156 11.3572 11.6914C11.3591 11.6907 11.3609 11.6899 11.3628 11.6891C11.4426 11.6591 11.516 11.614 11.5789 11.5563C11.5806 11.5547 11.5823 11.553 11.5839 11.5513C11.646 11.4931 11.6964 11.4236 11.7323 11.3464C11.7332 11.3444 11.734 11.3424 11.7349 11.3404C11.7702 11.2628 11.7903 11.179 11.794 11.0938C11.794 11.0929 11.794 11.092 11.794 11.0912C11.7941 11.0868 11.7941 11.0824 11.794 11.078C11.7943 11.0659 11.7943 11.0539 11.794 11.0418C11.7606 10.123 12.2374 9.15851 12.9878 8.62724C13.4326 8.3123 13.9803 8.12731 14.525 8.10821C15.0697 8.08909 15.629 8.23516 16.0948 8.51814C16.1343 8.54065 16.176 8.55905 16.2193 8.57307C16.2277 8.57742 16.2362 8.58158 16.2448 8.58557C16.2461 8.58557 16.2475 8.58557 16.2489 8.58557C16.311 8.60393 16.3755 8.61317 16.4403 8.61293C16.4578 8.61172 16.4751 8.60981 16.4924 8.60724C16.5399 8.6041 16.5868 8.59585 16.6325 8.58272C16.6533 8.57583 16.6737 8.56794 16.6937 8.55904C16.7336 8.54272 16.7718 8.52259 16.8078 8.4989C16.8272 8.48618 16.846 8.47241 16.864 8.45772C16.8975 8.4293 16.9282 8.39766 16.9554 8.36321C16.9691 8.34768 16.982 8.33154 16.9942 8.31481C16.9999 8.30806 17.0055 8.30115 17.0109 8.29418C17.0385 8.2482 17.0604 8.19909 17.0763 8.14786C17.0769 8.14663 17.0775 8.14541 17.0781 8.14418C17.2675 7.52948 17.6661 6.96761 18.1836 6.58557C18.701 6.20353 19.3554 5.98793 19.9987 5.98793L19.9997 5.98772Z" fill="#2AFF2A"/>
<path d="M13.3341 23.5765C12.8713 23.7567 12.3885 23.8882 11.8927 23.9614C11.8076 23.9739 11.7221 23.9828 11.6367 23.9921C13.0654 24.9219 14.2745 26.1969 15.1235 27.6746C16.3112 29.742 16.7896 32.2246 16.4555 34.5853C16.4558 34.5956 16.4565 34.6058 16.4573 34.616C16.4535 34.6368 16.4507 34.6578 16.4489 34.6788C16.4496 34.7317 16.4564 34.7843 16.4695 34.8356C16.47 34.8394 16.4705 34.8433 16.4711 34.8471C16.4921 34.9216 16.5259 34.9918 16.5711 35.0546C16.5819 35.07 16.5933 35.085 16.6054 35.0994C16.6518 35.1575 16.7075 35.2074 16.7703 35.2471C16.7731 35.2493 16.7759 35.2515 16.7788 35.2537C16.8462 35.2915 16.9197 35.3173 16.996 35.33C17.0046 35.3332 17.0133 35.3362 17.022 35.3391C17.0323 35.3387 17.0425 35.3381 17.0528 35.3372C17.0735 35.341 17.0945 35.3438 17.1155 35.3456H22.8835C22.9045 35.3438 22.9255 35.341 22.9463 35.3372C22.9566 35.3381 22.9669 35.3387 22.9772 35.3391C23.0017 35.3353 23.026 35.3301 23.0499 35.3237C23.0528 35.3231 23.0557 35.3225 23.0586 35.3219C23.112 35.3072 23.1633 35.286 23.2114 35.2586C23.2139 35.2573 23.2163 35.256 23.2187 35.2547C23.2676 35.2262 23.3126 35.1917 23.3528 35.1519C23.3537 35.1511 23.3545 35.1503 23.3554 35.1496C23.3953 35.1094 23.4299 35.0644 23.4585 35.0155C23.4594 35.0139 23.4604 35.0123 23.4613 35.0107C23.4894 34.9618 23.5111 34.9095 23.5259 34.855C23.5265 34.8534 23.5272 34.8517 23.5278 34.85C23.5424 34.7947 23.5498 34.7378 23.5499 34.6805C23.5499 34.68 23.5499 34.6795 23.5499 34.6789C23.5496 34.6704 23.5491 34.6619 23.5485 34.6535C23.5479 34.6365 23.5467 34.6196 23.5448 34.6027C23.5444 34.5973 23.5439 34.5919 23.5434 34.5865C23.2092 32.2258 23.6877 29.7432 24.8754 27.6758C25.7244 26.1981 26.9332 24.9231 28.3619 23.9932C28.2764 23.984 28.191 23.9751 28.1059 23.9625C27.6102 23.8894 27.1272 23.7581 26.6645 23.5779C25.4812 24.5267 24.4759 25.695 23.7194 27.0118C22.507 29.122 21.9573 31.5899 22.1428 34.0133H17.8551C18.0407 31.5899 17.4912 29.122 16.2788 27.0118C15.5222 25.6949 14.5169 24.5265 13.3335 23.5777L13.3341 23.5765Z" fill="#333333"/>
</svg>
