<svg width="40" height="40" viewBox="0 0 40 40" fill="none" xmlns="http://www.w3.org/2000/svg">
<path d="M33.7657 4.33451C29.2233 4.29619 24.6881 5.61293 20.8725 8.07777C16.6237 10.8224 13.3149 14.9707 11.5837 19.7233C11.5232 19.8894 11.5312 20.0728 11.6058 20.233C11.6805 20.3932 11.8158 20.5172 11.9818 20.5778C12.0641 20.6078 12.1515 20.6212 12.239 20.6174C12.3264 20.6136 12.4123 20.5927 12.4917 20.5557C12.571 20.5187 12.6424 20.4665 12.7015 20.4019C12.7607 20.3374 12.8066 20.2618 12.8365 20.1796C14.4659 15.7066 17.5969 11.781 21.5957 9.19784C24.7064 7.1884 28.3399 5.98705 32.035 5.72388C30.0223 7.82244 28.4906 10.3766 27.603 13.1483C26.8274 15.5701 26.5412 18.144 26.7657 20.677C26.7813 20.8531 26.8662 21.0158 27.0018 21.1293C27.1374 21.2428 27.3125 21.2978 27.4886 21.2822C27.5758 21.2745 27.6607 21.2496 27.7383 21.2091C27.816 21.1686 27.8848 21.1131 27.941 21.046C27.9973 20.9788 28.0397 20.9013 28.0659 20.8177C28.0921 20.7341 28.1016 20.6462 28.0938 20.559C27.8852 18.2047 28.1519 15.8061 28.8727 13.5551C29.8653 10.4558 31.7323 7.63262 34.1957 5.5059C34.2492 5.45913 34.2949 5.40412 34.3311 5.34291C34.3328 5.33989 34.3344 5.33686 34.336 5.33381C34.3935 5.23492 34.4245 5.12289 34.4262 5.00854C34.4262 5.00801 34.4262 5.00746 34.4262 5.00694C34.4262 5.00623 34.4262 5.00557 34.4262 5.00485C34.4262 4.96901 34.4234 4.93317 34.4177 4.89777C34.416 4.88835 34.414 4.87898 34.4118 4.86965C34.4066 4.84375 34.3999 4.81822 34.3917 4.79312C34.3879 4.78172 34.3837 4.7704 34.3792 4.75923C34.3704 4.73683 34.3604 4.71493 34.3493 4.6936C34.3435 4.68215 34.3374 4.67089 34.331 4.65979C34.3177 4.63788 34.3032 4.61676 34.2875 4.59652C34.2817 4.58831 34.2758 4.58022 34.2696 4.57229C34.2679 4.57 34.2661 4.56767 34.2643 4.56541C34.262 4.56355 34.2596 4.56176 34.2572 4.55992C34.2035 4.49963 34.1392 4.44954 34.0676 4.41222C34.0605 4.40863 34.0533 4.4052 34.046 4.40187C33.9751 4.36799 33.8987 4.34687 33.8205 4.33958C33.8164 4.3384 33.8124 4.33727 33.8083 4.33617C33.8049 4.33662 33.8015 4.33713 33.7982 4.33763C33.7873 4.33632 33.7763 4.33528 33.7654 4.33451H33.7657Z" fill="#333333"/>
<path d="M14.83 23.4129C14.7432 23.4114 14.6566 23.4129 14.5706 23.4145C14.3413 23.4204 14.1153 23.4378 13.8951 23.4626C13.0189 23.5611 12.2156 23.7675 11.4542 23.8702C10.387 24.0141 9.11848 23.9698 7.89195 24.5306C7.10381 24.8909 6.44144 25.4757 5.96824 26.1858C5.49586 26.8946 5.21981 27.7136 5.13907 28.5481C4.97751 30.2183 5.6025 31.861 6.64845 33.1077C7.57222 34.2087 8.82314 35.0217 10.2107 35.4085C11.5987 35.7955 13.0958 35.7473 14.4552 35.26C15.7494 34.7962 16.8846 33.9482 17.713 32.8608C18.5408 31.7741 19.051 30.4673 19.2029 29.1176C19.315 28.1216 19.2347 27.0681 18.8284 26.0944C18.4188 25.1128 17.6743 24.2428 16.6576 23.7877C16.0615 23.5208 15.4376 23.4216 14.83 23.4129ZM25.1703 23.4129C24.5627 23.4215 23.9388 23.5208 23.3427 23.7877C22.326 24.2428 21.5815 25.1128 21.1719 26.0944C20.7656 27.0681 20.6856 28.1216 20.7977 29.1176C20.9495 30.4673 21.4592 31.7741 22.287 32.8608C23.1154 33.9482 24.2509 34.7962 25.5451 35.26C26.9045 35.7473 28.4016 35.7955 29.7896 35.4085C31.1772 35.0217 32.4281 34.2087 33.3519 33.1077C34.3978 31.861 35.0228 30.2183 34.8612 28.5481C34.7805 27.7136 34.5044 26.8946 34.0321 26.1858C33.5589 25.4757 32.8962 24.8909 32.1081 24.5306C30.8816 23.9698 29.6133 24.0141 28.5461 23.8702C27.7847 23.7675 26.982 23.5611 26.1057 23.4626C25.8855 23.4378 25.6593 23.4204 25.43 23.4145C25.344 23.4122 25.2576 23.4116 25.1708 23.4129H25.1703ZM14.6005 24.7491C14.7837 24.7449 14.9638 24.7505 15.1388 24.7657C15.4888 24.7975 15.8184 24.8728 16.1128 25.0045C16.764 25.296 17.3038 25.9028 17.5979 26.6077C17.8953 27.3204 17.9701 28.1485 17.8779 28.9684C17.7526 30.0822 17.3271 31.1673 16.6526 32.0527C15.9787 32.9374 15.0451 33.6319 14.0055 34.0045C12.9146 34.3955 11.688 34.4361 10.5688 34.1241C9.44897 33.8119 8.41929 33.1439 7.67008 32.2509C6.82957 31.2491 6.34509 29.9277 6.46615 28.6764C6.52673 28.0502 6.73616 27.4372 7.07761 26.9249C7.41823 26.4138 7.90012 25.9932 8.44664 25.7434C9.30819 25.3495 10.4241 25.3542 11.6323 25.1913C12.4964 25.0747 13.2903 24.8724 14.044 24.7877C14.2313 24.7666 14.4174 24.7533 14.6005 24.7491ZM25.3998 24.7491C25.5828 24.7532 25.769 24.7666 25.9563 24.7877C26.71 24.8724 27.5039 25.0747 28.368 25.1913C29.5763 25.3543 30.692 25.3494 31.5537 25.7434C32.1002 25.9932 32.5821 26.4138 32.9227 26.9249C33.2641 27.4372 33.4736 28.0502 33.5341 28.6764C33.6552 29.9277 33.171 31.2491 32.3305 32.2509C31.5813 33.1439 30.5513 33.8119 29.4315 34.1241C28.3122 34.4361 27.0857 34.3955 25.9948 34.0045C24.9552 33.6319 24.0218 32.9374 23.3479 32.0527C22.6734 31.1673 22.248 30.0822 22.1227 28.9684C22.0304 28.1485 22.105 27.3204 22.4024 26.6077C22.6965 25.9028 23.2361 25.296 23.8873 25.0045C24.1816 24.8728 24.5117 24.7975 24.8617 24.7657C25.0367 24.7498 25.2167 24.7449 25.3998 24.7491Z" fill="#FF4D4C"/>
</svg>
