<svg width="14" height="14" viewBox="0 0 14 14" fill="none" xmlns="http://www.w3.org/2000/svg">
<path d="M2.56 0V7.80375H1.6V6.20375H0.96V7.80375H0V8.12375V13.5637H5.44H9.92V2.45312L8.96 2.13313V0.12375H8.32V1.91937L7.68 1.70625V0.12375H7.04V1.49312L2.56 0ZM3.2 0.888125L9.28 2.91437V12.9237H7.68V11.9175C8.22905 11.7735 8.64 11.2758 8.64 10.6838C8.64 9.98062 8.06313 9.40375 7.36 9.40375C6.65687 9.40375 6.08 9.98062 6.08 10.6838C6.08 11.2758 6.49095 11.7735 7.04 11.9175V12.9237H5.44V7.80375H3.2V0.888125ZM3.84 2.68375V3.32375H5.76V2.68375H3.84ZM10.56 3.64375V4.28375H12.8V12.9237H10.56V13.5637H13.44V3.64375H10.56ZM3.84 3.96375V4.60375H8.64V3.96375H3.84ZM10.56 4.92375V5.88375H12.16V4.92375H10.56ZM3.84 5.24375V5.88375H6.4V5.24375H3.84ZM7.04 5.24375V5.88375H8.64V5.24375H7.04ZM3.84 6.52375V7.16375H8.64V6.52375H3.84ZM10.56 6.52375V7.48375H12.16V6.52375H10.56ZM6.08 7.80375V8.44375H8.64V7.80375H6.08ZM10.56 8.12375V9.08375H12.16V8.12375H10.56ZM0.64 8.44375H4.8V12.9237H0.64V8.44375ZM1.28 9.08375V9.72375H2.24V9.08375H1.28ZM3.2 9.08375V9.72375H4.16V9.08375H3.2ZM10.56 9.72375V10.6838H12.16V9.72375H10.56ZM7.36 10.0437C7.71725 10.0437 8 10.3265 8 10.6838C8 11.041 7.71725 11.3237 7.36 11.3237C7.00275 11.3237 6.72 11.041 6.72 10.6838C6.72 10.3265 7.00275 10.0437 7.36 10.0437ZM1.28 10.3637V11.0037H2.24V10.3637H1.28ZM3.2 10.3637V11.0037H4.16V10.3637H3.2ZM10.56 11.3237V12.2837H12.16V11.3237H10.56ZM1.28 11.6438V12.2837H2.24V11.6438H1.28ZM3.2 11.6438V12.2837H4.16V11.6438H3.2Z" fill="black"/>
</svg>
