<svg width="28" height="28" viewBox="0 0 28 28" fill="none" xmlns="http://www.w3.org/2000/svg">
<path d="M17.843 4.704L20.9966 5.54094C21.0789 5.55773 21.1457 5.62494 21.1646 5.70768L21.996 8.86134C22.0185 8.95393 22.0999 9.01901 22.1946 9.01901C22.2903 9.01901 22.3708 8.95393 22.3923 8.86134L23.225 5.70768C23.2426 5.62499 23.3099 5.55773 23.3921 5.54094L26.5462 4.704C26.6384 4.68672 26.7039 4.60447 26.7039 4.5097C26.7039 4.41405 26.6384 4.33349 26.5462 4.31501L23.3921 3.47845C23.3099 3.46084 23.2426 3.39445 23.225 3.31177L22.3923 0.158102C22.3708 0.0663359 22.2902 0 22.1946 0C22.0999 0 22.0184 0.0663359 21.996 0.158102L21.1646 3.31177C21.1457 3.39445 21.0789 3.46084 20.9966 3.47845L17.843 4.31501C17.7499 4.33355 17.6853 4.4141 17.6853 4.5097C17.6853 4.60447 17.7499 4.68677 17.843 4.704Z" fill="#1E1E1E"/>
<path d="M21.0685 17.8572L19.637 17.4777C19.5996 17.4691 19.569 17.4397 19.5608 17.4019L19.1835 15.9705C19.1736 15.9287 19.1369 15.8989 19.0934 15.8989C19.0508 15.8989 19.0138 15.9287 19.0034 15.9705L18.6261 17.4019C18.6174 17.4398 18.5873 17.4691 18.5499 17.4777L17.1188 17.8572C17.0766 17.8654 17.0469 17.9025 17.0469 17.9455C17.0469 17.9886 17.0766 18.0257 17.1188 18.0343L18.5499 18.4133C18.5873 18.4211 18.6174 18.4521 18.6261 18.49L19.0034 19.9206C19.0138 19.9624 19.0508 19.9921 19.0934 19.9921C19.137 19.9921 19.1736 19.9624 19.1835 19.9206L19.5608 18.49C19.569 18.4521 19.5996 18.4211 19.637 18.4133L21.0685 18.0343C21.1099 18.0257 21.1401 17.9886 21.1401 17.9455C21.14 17.9024 21.1099 17.8654 21.0685 17.8572Z" fill="#1E1E1E"/>
<path d="M2.06961 7.66042L4.32295 8.25745C4.38235 8.26997 4.42938 8.31782 4.44354 8.37721L5.03712 10.6306C5.05347 10.6973 5.11166 10.7434 5.17931 10.7434C5.24734 10.7434 5.30509 10.6973 5.32106 10.6306L5.91507 8.37721C5.9276 8.31782 5.97627 8.26997 6.03528 8.25745L8.28906 7.66042C8.35495 7.64664 8.40188 7.5872 8.40188 7.51998C8.40188 7.45277 8.35495 7.39508 8.28906 7.3813L6.03528 6.78334C5.97627 6.77044 5.9276 6.72395 5.91507 6.66445L5.32106 4.40985C5.30509 4.34434 5.24739 4.29785 5.17931 4.29785C5.11171 4.29785 5.05353 4.34434 5.03712 4.40985L4.44354 6.66451C4.42932 6.72395 4.38235 6.77044 4.32295 6.7834L2.06961 7.38135C2.0024 7.39513 1.9563 7.45283 1.9563 7.52004C1.9563 7.5872 2.0024 7.6467 2.06961 7.66042Z" fill="#1E1E1E"/>
<path d="M21.6888 15.1429C21.258 14.6389 20.6425 14.1918 19.8835 13.817H19.8843C18.3706 13.0675 16.2948 12.6087 14.0009 12.6074L13.9944 12.6078V12.6074C12.488 12.6078 11.0742 12.8056 9.85213 13.1536C8.63003 13.5017 7.60141 13.998 6.86045 14.6011L6.86171 14.6002C6.36678 15.0025 6.00278 15.4514 5.80077 15.9395C5.68527 16.2165 5.62456 16.5085 5.625 16.8044C5.625 17.0478 5.82231 17.2455 6.06611 17.2455C6.30996 17.2455 6.50722 17.0478 6.50722 16.8044C6.50766 16.6265 6.54129 16.4573 6.61578 16.2763C6.74456 15.9627 7.00778 15.6173 7.41744 15.2855L7.4187 15.2846C8.02868 14.785 8.96001 14.3232 10.0938 14.0023C11.2276 13.6788 12.5656 13.4896 13.9944 13.4901H14.0177C16.1849 13.4905 18.1427 13.9355 19.4919 14.6075L19.4932 14.6079C20.1703 14.9414 20.6929 15.3333 21.0181 15.7159C21.1818 15.9076 21.2981 16.0958 21.3727 16.2763C21.4657 16.5016 21.7233 16.6085 21.9486 16.5154C22.1739 16.4224 22.2807 16.1647 22.1877 15.9395C22.0726 15.6611 21.9046 15.3945 21.6888 15.1429Z" fill="#1E1E1E"/>
<path d="M26.5734 14.873C26.3873 14.4242 26.1328 14.0068 25.8256 13.6212C25.5185 13.2361 25.1592 12.882 24.7594 12.5564L24.7349 12.5366L24.7586 12.5564C23.5576 11.5802 21.9771 10.8341 20.1463 10.3103H20.1459C18.3134 9.78955 16.2229 9.49878 14.0001 9.49878C12.3063 9.49878 10.6901 9.66765 9.20567 9.97822C7.72123 10.2888 6.36864 10.7411 5.2021 11.3175L5.20123 11.3179C4.036 11.896 3.04523 12.5999 2.3099 13.4584L2.32325 13.442L2.30946 13.4584C1.94246 13.8883 1.63921 14.36 1.42681 14.873C1.21402 15.3865 1.09557 15.94 1.09595 16.5099V20.9874C1.09557 21.5578 1.21402 22.1117 1.42681 22.6251C1.61291 23.074 1.86753 23.491 2.17466 23.8765C2.48222 24.2621 2.84103 24.6157 3.24074 24.9414L3.24161 24.9418C4.4426 25.9171 6.02264 26.6649 7.85341 27.1878L7.86325 27.19C9.69375 27.7091 11.7808 27.9995 14.0001 27.9999H14.0006C15.6939 27.9995 17.3101 27.8306 18.7946 27.52C20.279 27.2094 21.6316 26.7567 22.7981 26.1807L22.799 26.1799C23.9642 25.6017 24.9545 24.8975 25.6903 24.0398L25.6907 24.039C26.0577 23.6099 26.3605 23.1387 26.5729 22.6252L26.5596 22.6566L26.5734 22.6252C26.7857 22.1117 26.9042 21.5578 26.9042 20.9874V16.51C26.9042 15.94 26.7858 15.3865 26.5734 14.873ZM3.98345 23.3191C3.84777 23.1912 3.72111 23.0611 3.60829 22.9297C3.34076 22.6161 3.14 22.2952 3.00602 21.9721C2.87203 21.6482 2.80488 21.3221 2.80488 20.9874V18.9576C3.06634 19.2803 3.37521 19.5848 3.72456 19.87C3.80861 19.9376 3.89474 20.0045 3.98345 20.0708V23.3191ZM6.45778 24.879C6.28765 24.8049 6.12009 24.729 5.95936 24.649C5.58503 24.4637 5.24039 24.266 4.92599 24.0597V20.6868C5.3951 20.956 5.90768 21.2028 6.45778 21.4251V24.879ZM9.52182 25.84C8.74558 25.6758 8.01714 25.4704 7.34558 25.2305H7.40114V21.7693C7.61694 21.8408 7.83837 21.9084 8.06407 21.9731C8.53104 22.1057 9.01869 22.222 9.52182 22.3233V25.84ZM13.5284 26.2858C12.461 26.2643 11.4349 26.1669 10.4648 26.0101V22.4882C11.4405 22.6389 12.4666 22.7272 13.5284 22.748V26.2858ZM17.6535 25.989C16.6489 26.1566 15.5832 26.2617 14.4718 26.2832V22.7501C15.5763 22.7285 16.6433 22.6325 17.6535 22.4722V25.989ZM20.7176 25.2089C20.385 25.3296 20.0387 25.4416 19.678 25.544C19.33 25.6431 18.9673 25.7314 18.596 25.8124V22.2999C19.3425 22.1457 20.0524 21.9536 20.7176 21.7291V25.2089ZM23.1923 23.9795C22.746 24.2853 22.2325 24.5697 21.66 24.8281V21.3759C21.9357 21.2617 22.2032 21.142 22.4587 21.0158C22.7141 20.8887 22.9584 20.7556 23.1923 20.6177V23.9795ZM25.1954 20.9874C25.1954 21.3221 25.1282 21.6482 24.9938 21.9721C24.8215 22.3908 24.5324 22.8074 24.1348 23.2067V20.0216H24.0788C24.4699 19.723 24.8167 19.4047 25.1084 19.064C25.1381 19.0291 25.1665 18.9938 25.1953 18.9585V20.9874H25.1954ZM24.9938 17.4939C24.7612 18.059 24.3175 18.6199 23.68 19.139C22.7258 19.9178 21.3418 20.5933 19.6781 21.0658C18.0149 21.5397 16.073 21.8132 14.0002 21.8132C10.8422 21.8145 7.98575 21.1757 5.95942 20.1707C4.94628 19.6697 4.1433 19.0787 3.60829 18.4511C3.34076 18.1379 3.14 17.817 3.00602 17.4939C2.87203 17.17 2.80488 16.8443 2.80488 16.51C2.80488 16.1758 2.87203 15.8501 3.00602 15.5262C3.23953 14.9606 3.68234 14.3997 4.32032 13.8815C5.27495 13.1022 6.65854 12.4264 8.32219 11.9538C9.9854 11.4804 11.9277 11.2073 14.0002 11.2073C17.1582 11.2055 20.0141 11.8448 22.0405 12.8494C23.0541 13.3499 23.8574 13.9418 24.3916 14.5685C24.6595 14.8817 24.8603 15.2026 24.9938 15.5261C25.1283 15.8501 25.1954 16.1757 25.1954 16.51C25.1954 16.8443 25.1282 17.1699 24.9938 17.4939Z" fill="#1E1E1E"/>
</svg>
