<svg width="40" height="40" viewBox="0 0 40 40" fill="none" xmlns="http://www.w3.org/2000/svg">
<path d="M13.8046 16.5955C11.7335 16.5955 10.04 18.2886 10.04 20.3598C10.04 22.3736 11.6413 24.0298 13.6338 24.1199C13.3819 24.6242 13.2392 25.1918 13.2392 25.7913C13.2392 27.7353 14.7312 29.3463 16.627 29.5368C16.3771 30.0396 16.2356 30.6049 16.2356 31.202C16.2356 33.2731 17.929 34.9668 20.0002 34.9668C22.0713 34.9668 23.7645 33.2731 23.7645 31.202C23.7645 30.6106 23.6261 30.0503 23.3806 29.5512C25.3684 29.4557 26.9637 27.8017 26.9637 25.7913C26.9637 25.1862 26.8184 24.6139 26.5622 24.1061C28.4629 23.9205 29.9601 22.3073 29.9601 20.3598C29.9601 18.2886 28.2669 16.5955 26.1957 16.5955C24.9147 16.5955 23.7788 17.2436 23.0981 18.228C22.4174 17.2436 21.2813 16.5955 20.0002 16.5955C18.7191 16.5955 17.5829 17.2436 16.9023 18.228C16.2216 17.2436 15.0857 16.5955 13.8046 16.5955ZM13.8046 17.9288C15.1552 17.9288 16.2356 19.0092 16.2356 20.3598C16.2356 21.7103 15.1552 22.791 13.8046 22.791C12.4541 22.791 11.3734 21.7103 11.3734 20.3598C11.3734 19.0092 12.4541 17.9288 13.8046 17.9288ZM20.0002 17.9288C21.3507 17.9288 22.4312 19.0092 22.4312 20.3598C22.4312 21.7103 21.3507 22.791 20.0002 22.791C18.6496 22.791 17.5689 21.7103 17.5689 20.3598C17.5689 19.0092 18.6496 17.9288 20.0002 17.9288ZM26.1957 17.9288C27.5463 17.9288 28.6267 19.0092 28.6267 20.3598C28.6267 21.7103 27.5463 22.791 26.1957 22.791C24.8452 22.791 23.7645 21.7103 23.7645 20.3598C23.7645 19.0092 24.8452 17.9288 26.1957 17.9288ZM17.0038 23.36C18.3544 23.36 19.4348 24.4407 19.4348 25.7913C19.4348 26.647 19.0009 27.3936 18.3395 27.8264C18.2338 27.8788 18.131 27.9361 18.0312 27.9978C17.7196 28.1419 17.3719 28.2225 17.0038 28.2225C15.6533 28.2225 14.5726 27.1419 14.5726 25.7913C14.5726 24.4407 15.6533 23.36 17.0038 23.36ZM23.1994 23.36C24.55 23.36 25.6304 24.4407 25.6304 25.7913C25.6304 27.1419 24.55 28.2225 23.1994 28.2225C21.8488 28.2225 20.7682 27.1419 20.7682 25.7913C20.7682 24.4407 21.8488 23.36 23.1994 23.36ZM20.0002 28.771C21.3507 28.771 22.4312 29.8514 22.4312 31.202C22.4312 32.5525 21.3507 33.6334 20.0002 33.6334C18.6496 33.6334 17.5689 32.5525 17.5689 31.202C17.5689 30.3465 18.0029 29.5999 18.664 29.1671C18.77 29.1145 18.8732 29.0574 18.9734 28.9955C19.2848 28.8515 19.6324 28.771 20.0002 28.771Z" fill="#355FD1"/>
<path d="M25.1854 5.03884C23.3563 5.26042 21.6675 6.28147 20.6215 7.79821C20.4332 8.07129 20.2705 8.35575 20.1252 8.6464C19.9532 8.30227 19.7428 7.97689 19.4958 7.67842C18.7947 6.83134 17.8257 6.22656 16.7567 5.96932C16.4895 5.90502 16.2182 5.86298 15.9455 5.84276C15.1363 5.78274 14.3165 5.91614 13.5661 6.23495C13.5578 6.23836 13.5495 6.2416 13.5413 6.24502C13.5161 6.25879 13.4917 6.2742 13.4684 6.29113C13.4363 6.30795 13.4055 6.32736 13.3765 6.34918C13.3514 6.37303 13.3281 6.3988 13.307 6.42627C13.2828 6.45115 13.2606 6.47789 13.2406 6.50623C13.224 6.53676 13.2097 6.56856 13.1981 6.6013C13.1839 6.62812 13.1715 6.65586 13.1611 6.68436C13.1588 6.69303 13.1569 6.70193 13.1546 6.71068C12.8808 7.75594 12.9849 8.87876 13.4473 9.85571C13.9137 10.841 14.7258 11.6391 15.7192 12.088C16.4728 12.4285 17.3108 12.5608 18.1327 12.469C18.4652 12.4319 18.7918 12.3578 19.1069 12.2505C18.915 13.7215 18.9483 15.2201 19.2051 16.6815C19.4619 16.6257 19.7277 16.5945 20.0007 16.5945C20.188 16.5945 20.3716 16.61 20.5517 16.6367C20.2089 14.8386 20.2411 12.9659 20.6504 11.1823C20.8705 10.2231 21.1993 9.30913 21.7197 8.55443C22.5402 7.36461 23.9114 6.53557 25.3463 6.36172C25.4332 6.35117 25.5172 6.32361 25.5934 6.28061C25.6697 6.2376 25.7367 6.17998 25.7907 6.11106C25.8447 6.04214 25.8846 5.96324 25.9081 5.8789C25.9316 5.79457 25.9383 5.70645 25.9278 5.61953C25.9065 5.44405 25.8163 5.2842 25.6772 5.17515C25.5381 5.06611 25.3613 5.0168 25.1858 5.03804L25.1854 5.03884ZM15.5442 7.16356C15.8482 7.16142 16.1518 7.19536 16.445 7.26592C17.2268 7.45405 17.9557 7.9089 18.4684 8.52842C18.9658 9.12942 19.2708 9.90341 19.3257 10.6847C18.9184 10.9313 18.4553 11.0922 17.984 11.1448C17.4042 11.2096 16.7993 11.1137 16.2676 10.8735C15.5707 10.5586 14.9789 9.97774 14.6517 9.28651C14.3714 8.69425 14.2773 8.00284 14.3807 7.35238C14.7543 7.23039 15.1495 7.16637 15.5442 7.16356Z" fill="#333333"/>
</svg>
