<svg width="28" height="28" viewBox="0 0 28 28" fill="none" xmlns="http://www.w3.org/2000/svg">
<path fill-rule="evenodd" clip-rule="evenodd" d="M9.84777 21.3854C9.8313 20.0513 8.74918 18.9741 7.41177 18.9741C6.076 18.9741 4.99553 20.0513 4.97906 21.3854L4.97412 21.4184C4.97412 22.7673 6.06612 23.8593 7.41012 23.8593C8.75742 23.8593 9.84941 22.7673 9.84941 21.4184L9.84777 21.3854Z" fill="#1E1E1E"/>
<path fill-rule="evenodd" clip-rule="evenodd" d="M18.1142 21.3358C18.0812 20.0297 16.9942 18.9756 15.6535 18.9756C14.3127 18.9756 13.2273 20.0297 13.196 21.3358C13.1927 21.3539 13.1895 21.3737 13.1895 21.3918C13.1895 22.7259 14.293 23.8081 15.6535 23.8081C17.0172 23.8081 18.1207 22.7259 18.1207 21.3918C18.1207 21.3754 18.1142 21.3539 18.1142 21.3358Z" fill="#1E1E1E"/>
<path fill-rule="evenodd" clip-rule="evenodd" d="M24.7025 21.3358C24.6696 20.0297 23.5825 18.9756 22.2418 18.9756C20.9011 18.9756 19.8157 20.0297 19.7844 21.3358C19.7811 21.3539 19.7778 21.3737 19.7778 21.3918C19.7778 22.7259 20.8814 23.8081 22.2418 23.8081C23.6056 23.8081 24.7091 22.7259 24.7091 21.3918C24.7091 21.3754 24.7025 21.3539 24.7025 21.3358Z" fill="#1E1E1E"/>
<path fill-rule="evenodd" clip-rule="evenodd" d="M27.8978 22.2023C27.8978 20.6129 26.3792 18.9559 26.3792 18.9559H26.3018V17.2232V14.0246H24.6811V9.08347L21.4496 9.123V14.0642L19.7136 14.0246V10.7651H18.1439V14.0246H13.1253V8.98135H14.7724V5.76465H1.67334V8.95665H3.3204V17.3978H1.6964V22.2105H3.30887C3.2611 21.9536 3.22981 21.6901 3.22981 21.4199C3.22981 21.4002 3.23805 21.3656 3.23805 21.3656C3.26605 19.0762 5.12228 17.2265 7.41334 17.2265C9.70769 17.2265 11.5656 19.0762 11.5919 21.3656C11.5919 21.3821 11.6018 21.4002 11.6018 21.4199C11.6018 21.6901 11.5689 21.9536 11.5211 22.2105H26.3035V22.2039H27.8978V22.2023ZM9.88228 14.0675H6.57499V9.00771H9.88228V14.0675Z" fill="#1E1E1E"/>
</svg>
