<svg width="50" height="50" viewBox="0 0 50 50" fill="none" xmlns="http://www.w3.org/2000/svg">
<path d="M11.086 43.9922L8.82423 48.5391C8.82423 48.5391 4.44923 48.6368 4.19923 48.4727C3.94923 48.3086 1.08205 30.4063 14.0977 16.0586C27.8633 0.875047 45.1602 0.984421 45.5742 1.48442C45.9883 1.98051 45.8867 8.05083 45.8867 8.05083L11.086 43.9922Z" fill="#FF5117"/>
<path d="M27.6485 11.0195C19.1016 15.8516 12.6485 23.1641 9.66023 34.6055C8.23835 40.0469 8.77351 48.5312 8.77351 48.5312H13.8204L28.8321 26.4922L45.8868 10.5078V5.83594C45.8868 5.83594 35.6837 6.47266 27.6485 11.0195Z" fill="#FF8E00"/>
<path d="M17.1954 29.2657C13.0743 37.2032 13.8126 48.5313 13.8126 48.5313L18.7384 48.5274L35.5626 26.1758L45.8907 15.5547L45.8829 10.5118C45.8829 10.5118 39.9962 10.4571 30.8321 14.8946C23.4728 18.4532 19.4376 24.9492 17.1954 29.2657Z" fill="#F9D81E"/>
<path d="M25.5741 25.2852C17.0311 35.9609 18.6483 48.5274 18.6483 48.5274H24.1288L33.4882 31.5469L45.8905 21.2617L45.8866 15.5039C45.8866 15.5039 33.2069 15.7422 25.5741 25.2852Z" fill="#97CC37"/>
<path d="M30.051 27.6875C21.5276 35.8711 23.4221 48.5274 23.4221 48.5274H27.8205L34.3752 32.0977L45.8908 26.0703L45.8869 20.3867C45.8869 20.3867 38.3518 19.7227 30.051 27.6875Z" fill="#00C0E9"/>
<path d="M45.715 29.1876C45.9767 28.7774 45.8908 24.5001 45.8908 24.5001C45.8908 24.5001 38.7619 24.3711 32.7541 31.1407C26.758 37.8985 27.6213 48.5274 27.6213 48.5274C27.6213 48.5274 31.7307 48.6524 31.8986 48.3204C32.2346 47.6563 30.7619 39.8321 35.6642 34.3125C40.7424 28.5977 45.5705 29.4063 45.715 29.1876Z" fill="#8177FA"/>
</svg>
