<svg width="12" height="12" viewBox="0 0 12 12" fill="none" xmlns="http://www.w3.org/2000/svg">
<g clip-path="url(#clip0_7_322)">
<path d="M11.6618 7.36404V4.32972C11.6618 4.10482 11.4795 3.92248 11.2545 3.92248H10.4277L9.23175 2.88527C8.67861 2.4056 7.84333 2.43883 7.32999 2.96113L6.67043 3.63242L4.8051 2.34647C4.28633 1.98886 3.58995 2.02551 3.11158 2.43573L1.45922 3.85282C1.43468 3.87389 1.41361 3.8974 1.39537 3.92248H0.765828C0.540923 3.92248 0.358588 4.10482 0.358588 4.32972V7.36095C0.156652 7.38505 0 7.55658 0 7.76504C0 7.98994 0.182335 8.17228 0.40724 8.17228H0.765828H11.2545H11.5928C11.8177 8.17228 12 7.98994 12 7.76504C12 7.5637 11.8538 7.39689 11.6618 7.36404ZM8.6981 3.50058L9.18456 3.92248H7.5272L7.91088 3.53202C8.1234 3.31575 8.46923 3.30207 8.6981 3.50058ZM3.64176 3.05392C3.83978 2.88413 4.128 2.86893 4.34275 3.017L5.65613 3.92248H2.62909L3.64176 3.05392Z" fill="#1E1E1E"/>
<path d="M3.45231 8.38747C3.18565 8.38747 2.95129 8.52669 2.81674 8.7359H2.61377C2.47922 8.52669 2.24492 8.38747 1.97821 8.38747C1.56157 8.38747 1.22253 8.72645 1.22253 9.14314C1.22253 9.55977 1.56152 9.89881 1.97821 9.89881C2.24487 9.89881 2.47922 9.75959 2.61372 9.55038H2.81674C2.95129 9.75959 3.18559 9.89881 3.45225 9.89881C3.86889 9.89881 4.20793 9.55983 4.20793 9.14314C4.20793 8.72645 3.86894 8.38747 3.45231 8.38747Z" fill="#1E1E1E"/>
<path d="M10.0218 8.38747C9.75511 8.38747 9.52075 8.52669 9.3862 8.7359H9.18323C9.04868 8.52669 8.81438 8.38747 8.54767 8.38747C8.13098 8.38747 7.79199 8.72645 7.79199 9.14314C7.79199 9.55977 8.13098 9.89881 8.54767 9.89881C8.81433 9.89881 9.04868 9.75959 9.18318 9.55038H9.3862C9.52075 9.75959 9.75505 9.89881 10.0217 9.89881C10.4383 9.89881 10.7773 9.55983 10.7773 9.14314C10.7774 8.72645 10.4384 8.38747 10.0218 8.38747Z" fill="#1E1E1E"/>
</g>
<defs>
<clipPath id="clip0_7_322">
<rect width="12" height="12" fill="white"/>
</clipPath>
</defs>
</svg>
